<svg xmlns="http://www.w3.org/2000/svg" viewBox="0 0 182.29 182.29">
    <defs>
        <style>.cls-1{fill:#054973;}.cls-2{fill:#89b9d9;}</style>
    </defs>
    <g id="Ebene_2" data-name="Ebene 2">
        <g id="Layer_1" data-name="Layer 1">
            <path class="cls-1" d="M120.46,173.47l-4.64-17.33a69.54,69.54,0,0,0,40.33-40.33l17.32,4.64a7,7,0,0,0,3.63-13.53l-17.36-4.65a69.6,69.6,0,0,0-8.53-46.12,19.29,19.29,0,0,0,6.47-31.55,19.3,19.3,0,0,0-27.28,0,19,19,0,0,0-4.26,6.47A69.61,69.61,0,0,0,80,22.55L75.36,5.18A7,7,0,0,0,61.84,8.81l4.64,17.33A69.52,69.52,0,0,0,26.15,66.48L8.82,61.83A7,7,0,0,0,5.19,75.36L22.55,80a69.51,69.51,0,0,0,14.73,55.11l-5.62,5.61a7,7,0,1,0,9.9,9.9L47.18,145a69.52,69.52,0,0,0,55.1,14.73l4.65,17.36a7.09,7.09,0,0,0,1.8,3.13,7,7,0,0,0,11.73-6.76Zm-8.29-30.93a55.85,55.85,0,0,1-55-7.5,55.61,55.61,0,0,1-9.9-9.89,55.52,55.52,0,0,1-11.09-41.5A55.34,55.34,0,0,1,83.66,36.16a55.51,55.51,0,0,1,28.51,106.38Z" />
            <path class="cls-2" d="M105.6,118A30.61,30.61,0,0,0,118,105.59l24.52,6.57a55,55,0,0,0,3.59-13.54l-24.5-6.57a30.68,30.68,0,0,0-4.55-17l18-18a56.11,56.11,0,0,0-9.9-9.9l-18,18a30.61,30.61,0,0,0-17-4.54l-6.57-24.5a54.66,54.66,0,0,0-13.54,3.6l6.58,24.5A30.76,30.76,0,0,0,64.26,76.69l-24.5-6.57a54.81,54.81,0,0,0-3.61,13.53l24.51,6.57a30.49,30.49,0,0,0,4.54,17l-18,18a55.61,55.61,0,0,0,9.9,9.89l18-17.95a30.69,30.69,0,0,0,17,4.54l6.56,24.5a55.28,55.28,0,0,0,13.54-3.59ZM79.46,102.82a16.57,16.57,0,0,1-4.27-15.95s0,0,0,0a16.51,16.51,0,1,1,20.22,20.24h0A16.57,16.57,0,0,1,79.46,102.82Z" />
        </g>
    </g>
</svg>