<svg xmlns="http://www.w3.org/2000/svg" viewBox="0 0 506.75 506.76"><defs><style>.cls-1{fill:#e73b2d;}.cls-2{fill:#73160e;}.cls-3{fill:#7c8d27;stroke-width:4px;}.cls-3,.cls-6{stroke:#1d1d1b;stroke-miterlimit:10;}.cls-4{fill:#94a723;}.cls-5{fill:#565a1f;}.cls-6{fill:none;stroke-width:5px;}</style></defs><g id="Ebene_2" data-name="Ebene 2"><g id="Ebene_1-2" data-name="Ebene 1"><path class="cls-1" d="M506.75,253.38c0,139.94-113.44,253.38-253.37,253.38a253.72,253.72,0,0,1-64-8.17C80.41,470.23,0,371.2,0,253.38,0,113.44,113.44,0,253.38,0,371.17,0,470.19,80.38,498.57,189.29A253.61,253.61,0,0,1,506.75,253.38Z"/><path class="cls-2" d="M506.75,253.38c0,139.94-113.44,253.38-253.37,253.38a253.72,253.72,0,0,1-64-8.17L59.49,368.74l-1.41-1.41a11.93,11.93,0,0,1-2.83-7.72v-.15L279.56,135.15h160a11.88,11.88,0,0,1,7.93,3l1.07,1.06,50.06,50.06A253.61,253.61,0,0,1,506.75,253.38Z"/><path class="cls-3" d="M451.51,147.15V359.61a12,12,0,0,1-12,12H67.25a11.91,11.91,0,0,1-7.76-2.87,12.52,12.52,0,0,1-1.41-1.41,11.93,11.93,0,0,1-2.83-7.72V147.15a12,12,0,0,1,12-12H439.51a11.88,11.88,0,0,1,7.93,3l1.07,1.06A12,12,0,0,1,451.51,147.15Z"/><path class="cls-4" d="M421.38,148.88h-96c-6.6,0-12,12-12,12s-5.4-12-12-12h-96c-6.6,0-12,12-12,12s-5.4-12-12-12h-96a12,12,0,0,0-12,12v185a12,12,0,0,0,12,12h96c6.6,0,12-12,12-12s5.4,12,12,12h96c6.6,0,12-12,12-12s5.4,12,12,12h96a12,12,0,0,0,12-12v-185A12,12,0,0,0,421.38,148.88Z"/><path class="cls-5" d="M283.17,248.18c0,29.86-11.08,46.35-30.54,46.35-17.16,0-28.78-16.08-29-45.13,0-29.46,12.7-45.68,30.54-45.68C272.63,203.72,283.17,220.21,283.17,248.18Zm-47.7,1.35c0,22.84,7,35.81,17.84,35.81,12.16,0,18-14.19,18-36.62,0-21.62-5.54-35.81-17.83-35.81C243,212.91,235.47,225.61,235.47,249.53Z"/><path class="cls-5" d="M163.17,248.18c0,29.86-11.08,46.35-30.54,46.35-17.16,0-28.78-16.08-29-45.13,0-29.46,12.7-45.68,30.54-45.68C152.63,203.72,163.17,220.21,163.17,248.18Zm-47.7,1.35c0,22.84,7,35.81,17.84,35.81,12.16,0,18-14.19,18-36.62,0-21.62-5.54-35.81-17.83-35.81C123,212.91,115.47,225.61,115.47,249.53Z"/><path class="cls-5" d="M350.74,148.88c4.52,5.22,11.22,8.45,19.46,8.45s15-3.12,19.8-8.45Zm40.37,0c-1.73,9.89-5.83,17.27-11.45,22.37a33.13,33.13,0,0,1-18.37,8.51,49.39,49.39,0,0,1-9.6.41v9.73a55.55,55.55,0,0,0,10.95-.68,43.93,43.93,0,0,0,25.54-11.76c6.62-6.42,12-15.84,14.11-28.58Z"/><path class="cls-5" d="M385.34,330.79v-.41c10.81-5.13,14.46-13.1,14.46-20.54,0-10.94-8.52-21.62-25.54-21.62-15.41,0-27.16,9.46-27.16,23.38,0,7.57,4.19,15.13,13.91,19.73l.14.4c-10.81,4.6-17.43,12.44-17.43,23.52a20.75,20.75,0,0,0,.16,2.63h12.36a16.18,16.18,0,0,1-.36-4.25c0-8.38,5.54-15.14,15.81-18.11C383.58,338.9,391,344,391,354.71a16.31,16.31,0,0,1-.3,3.17h11.94a24.22,24.22,0,0,0,.39-4.39C403,342.81,396.28,335.11,385.34,330.79ZM375.07,327c-10.14-2.7-16.76-7.43-16.76-16.21,0-7.57,5.41-14.05,15.27-14.05,10.68,0,14.87,7.29,14.87,14.32C388.45,319,382.64,324.44,375.07,327Z"/><line class="cls-6" x1="193.38" y1="189.95" x2="193.38" y2="316.82"/><line class="cls-6" x1="313.45" y1="189.95" x2="313.45" y2="316.82"/><path class="cls-6" d="M421.38,148.88h-96c-6.6,0-12,12-12,12s-5.4-12-12-12h-96c-6.6,0-12,12-12,12s-5.4-12-12-12h-96a12,12,0,0,0-12,12v185a12,12,0,0,0,12,12h96c6.6,0,12-12,12-12s5.4,12,12,12h96c6.6,0,12-12,12-12s5.4,12,12,12h96a12,12,0,0,0,12-12v-185A12,12,0,0,0,421.38,148.88Z"/></g></g></svg>