<svg xmlns="http://www.w3.org/2000/svg" viewBox="0 0 224.8 224.8">
    <defs>
        <style>.cls-1{fill:#054973;}.cls-2{fill:none;stroke:#054973;stroke-linecap:round;stroke-linejoin:round;stroke-width:8px;}</style>
    </defs>
    <g id="Ebene_2" data-name="Ebene 2">
        <g id="Layer_1" data-name="Layer 1">
            <path class="cls-1" d="M112.4,8A104.4,104.4,0,0,1,216.8,112.4h0A104.4,104.4,0,0,1,112.4,216.8h0A104.4,104.4,0,0,1,8,112.4H8A104.4,104.4,0,0,1,112.4,8h0m0-8A112.4,112.4,0,0,0,32.92,191.88a112.4,112.4,0,0,0,159-159A111.67,111.67,0,0,0,112.4,0Z" />
            <polygon class="cls-2" points="182 101.31 112.41 138.61 112.4 138.61 42.81 101.31 182 101.31" />
            <path class="cls-2" d="M112.4,138.61l-60,32.15a11.46,11.46,0,0,1-9.61-11.31V101.31Z" />
            <path class="cls-2" d="M182,101.31v58.14a11.46,11.46,0,0,1-11.47,11.46H54.27c-.31,0-.63,0-.94,0a9,9,0,0,1-.91-.11l60-32.15h0L182,101.31Z" />
            <path class="cls-2" d="M182,101.31H42.8a11.49,11.49,0,0,1,3.67-8.4L104.6,39a11.45,11.45,0,0,1,15.6,0l58.14,54A11.44,11.44,0,0,1,182,101.31Z" />
        </g>
    </g>
</svg>