<svg xmlns="http://www.w3.org/2000/svg" viewBox="0 0 227.88 227.88">
    <defs>
        <style>.cls-1{fill:#054973;}.cls-2{fill:none;stroke:#054973;stroke-linecap:round;stroke-linejoin:round;stroke-width:8px;}</style>
    </defs>
    <g id="Layer_1" data-name="Layer 1">
        <path class="cls-1" d="M113.94,8A105.94,105.94,0,0,1,219.88,113.94h0A105.94,105.94,0,0,1,8,113.94H8A105.94,105.94,0,0,1,113.94,8m0-8A113.94,113.94,0,0,0,33.37,194.51,113.94,113.94,0,0,0,194.51,33.37,113.21,113.21,0,0,0,113.94,0Z" />
        <path class="cls-2" d="M83,62.43a20.21,20.21,0,0,1,3.41.29A20.41,20.41,0,0,1,91,64.05l5.47,34.57a20.29,20.29,0,0,1-10,4.73,61.8,61.8,0,0,0,14.46,23.15l.07.4.4.07a61.85,61.85,0,0,0,23.15,14.46,20.36,20.36,0,0,1,4.73-10.05l34.56,5.48a19.76,19.76,0,0,1,1.33,4.57,19.14,19.14,0,0,1,.29,3.41,20.6,20.6,0,0,1-20.6,20.6A82.44,82.44,0,0,1,62.43,83,20.62,20.62,0,0,1,83,62.43Z" />
    </g>
</svg>