<svg id="Ebene_1" data-name="Ebene 1" xmlns="http://www.w3.org/2000/svg" viewBox="0 0 1713.89 595.28"><defs><style>.cls-1{fill:#007bb9;}.cls-2{fill:#dcdcdc;}.cls-3,.cls-5{fill:#737b84;stroke:#5f656c;stroke-width:2px;}.cls-15,.cls-17,.cls-3,.cls-5{stroke-linecap:round;}.cls-15,.cls-3{stroke-linejoin:round;}.cls-4{fill:#eea72f;}.cls-16,.cls-17,.cls-5,.cls-6{stroke-miterlimit:10;}.cls-6{fill:#0d5794;}.cls-17,.cls-6{stroke:#007bb9;stroke-width:12px;}.cls-7{fill:#881811;}.cls-8{fill:#691411;}.cls-9{fill:#762424;}.cls-10{fill:#b57a1c;}.cls-11{fill:#ce8b20;}.cls-12{fill:#007e59;}.cls-13{fill:#056347;}.cls-14{fill:#0d8865;}.cls-15,.cls-16{fill:#b9c5ce;}.cls-15{stroke:#47494b;stroke-width:4px;}.cls-16{stroke:#881811;stroke-width:10px;}.cls-17{fill:none;}</style></defs><path class="cls-1" d="M-64.79.07l-.18,176H1728.09V.07Z"/><polygon class="cls-2" points="1728.09 176.1 1728.09 319.32 603.49 319.32 487.75 435.06 -64.79 435.06 -63.79 176.1 1728.09 176.1"/><polyline class="cls-3" points="-64.79 595.34 -64.79 435.06 487.75 435.06 603.49 319.32 1728.09 319.32 1728.09 509.61 603.49 509.61 517.75 595.34"/><path class="cls-4" d="M519.46,55.8A2.46,2.46,0,0,1,517,58.18h-29.7V76.82h21.41a2.42,2.42,0,1,1,0,4.84H487.31v23.4a2.47,2.47,0,0,1-2.45,2.45,2.42,2.42,0,0,1-2.46-2.45V55.8a2.42,2.42,0,0,1,2.46-2.45H517A2.47,2.47,0,0,1,519.46,55.8Z"/><path class="cls-4" d="M536.34,107.51c-11.2,0-19.56-8.9-19.56-20.71A21.88,21.88,0,0,1,522,72.22a18.37,18.37,0,0,1,14-6.14c11,0,18.87,8.67,18.87,20.72a2.47,2.47,0,0,1-2.46,2.45H521.76c1.08,7.75,7,13.35,14.58,13.35a13.85,13.85,0,0,0,12.27-6.9,2.48,2.48,0,0,1,4.22,2.6A19,19,0,0,1,536.34,107.51ZM521.76,84.34h28c-.93-8-6.3-13.43-13.81-13.43S522.76,76.44,521.76,84.34Z"/><path class="cls-4" d="M565.11,55.8v49.26a2.46,2.46,0,0,1-4.91,0V55.8a2.46,2.46,0,0,1,4.91,0Z"/><path class="cls-4" d="M573.93,57a2.66,2.66,0,0,1,2.69,2.61,2.61,2.61,0,0,1-2.69,2.61,2.65,2.65,0,0,1-2.68-2.61A2.71,2.71,0,0,1,573.93,57Zm0,50.56a2.47,2.47,0,0,1-2.45-2.45V68.46a2.45,2.45,0,0,1,2.45-2.38,2.41,2.41,0,0,1,2.46,2.38v36.6A2.42,2.42,0,0,1,573.93,107.51Z"/><path class="cls-4" d="M615,103.52a2.52,2.52,0,0,1-.38,3.45,2.46,2.46,0,0,1-3.46-.38L598.56,90.71,586,106.59a2.34,2.34,0,0,1-1.92.92,2.3,2.3,0,0,1-1.53-.54,2.51,2.51,0,0,1-.39-3.45L595.42,86.8,582.14,70A2.43,2.43,0,1,1,586,67l12.58,15.81L611.14,67A2.43,2.43,0,1,1,615,70L601.71,86.8Z"/><path class="cls-4" d="M707.66,55.8a2.42,2.42,0,0,1-2.46,2.38H689.32v46.88a2.42,2.42,0,1,1-4.83,0V58.18H668.61a2.42,2.42,0,1,1,0-4.83H705.2A2.42,2.42,0,0,1,707.66,55.8Z"/><path class="cls-4" d="M720.7,107.51c-11.2,0-19.56-8.9-19.56-20.71a21.83,21.83,0,0,1,5.22-14.58,18.35,18.35,0,0,1,14-6.14c11,0,18.87,8.67,18.87,20.72a2.47,2.47,0,0,1-2.45,2.45H706.13c1.07,7.75,7,13.35,14.57,13.35A13.88,13.88,0,0,0,733,95.7a2.48,2.48,0,0,1,4.22,2.6A19,19,0,0,1,720.7,107.51ZM706.13,84.34h28c-.92-8-6.29-13.43-13.81-13.43S707.12,76.44,706.13,84.34Z"/><path class="cls-4" d="M777.71,68.46v36.6a2.46,2.46,0,0,1-4.91,0v-2.77a16.71,16.71,0,0,1-12.2,5.22,15.74,15.74,0,0,1-12-5.29,18.82,18.82,0,0,1-4.45-12.43V68.46a2.46,2.46,0,0,1,4.91,0V89.79c0,7.44,4.83,12.81,11.51,12.81s12.2-5.6,12.2-12.81V68.46a2.46,2.46,0,0,1,4.91,0Z"/><path class="cls-4" d="M804.1,100.61a2.44,2.44,0,0,1,.31,3.45,10,10,0,0,1-17.5-6.45V70.91h-2.22a2.42,2.42,0,0,1,0-4.83h2.22V58.26a2.47,2.47,0,0,1,2.46-2.46,2.42,2.42,0,0,1,2.45,2.46v7.82h8.67a2.42,2.42,0,1,1,0,4.83h-8.67v26.7a5,5,0,0,0,5.07,5,4.77,4.77,0,0,0,3.76-1.76A2.43,2.43,0,0,1,804.1,100.61Z"/><path class="cls-4" d="M822.21,107.51c-5.68,0-10.44-2.68-12.43-7.06a2.56,2.56,0,0,1,1.23-3.3,2.45,2.45,0,0,1,3.22,1.23c.92,2.07,3.53,4.22,8,4.22,5.6,0,8.59-3.61,8.59-7.06,0-4.52-2.76-5.68-9.13-7.29-5.37-1.38-12.12-3.07-12.12-11a10.91,10.91,0,0,1,3.3-7.67,13,13,0,0,1,9.36-3.53c5.29,0,9.66,2.46,11.58,6.52a2.35,2.35,0,0,1-1.15,3.22,2.46,2.46,0,0,1-3.3-1.15c-.84-1.76-3.14-3.76-7.13-3.76-5.68,0-7.75,3.92-7.75,6.37,0,3.76,2.45,4.76,8.44,6.22,5.37,1.38,12.81,3.22,12.81,12a11.8,11.8,0,0,1-3.53,8.21A13.91,13.91,0,0,1,822.21,107.51Z"/><path class="cls-4" d="M859.88,107.51c-11.13,0-19.57-8.9-19.57-20.71s8.44-20.72,19.57-20.72a18.87,18.87,0,0,1,15.8,8.13,2.45,2.45,0,1,1-4,2.84,14.08,14.08,0,0,0-11.81-6.14c-8.37,0-14.74,6.83-14.74,15.89s6.37,15.8,14.74,15.8a14,14,0,0,0,11.81-6.06,2.43,2.43,0,0,1,4,2.76A18.91,18.91,0,0,1,859.88,107.51Z"/><path class="cls-4" d="M914.27,83.73v21.33a2.42,2.42,0,0,1-2.45,2.45,2.47,2.47,0,0,1-2.46-2.45V83.73c0-7.29-5.06-12.82-11.81-12.82s-11.9,5.53-11.9,12.82v21.33a2.42,2.42,0,0,1-2.45,2.45,2.47,2.47,0,0,1-2.46-2.45V55.8a2.47,2.47,0,0,1,2.46-2.45,2.42,2.42,0,0,1,2.45,2.45V71a16.39,16.39,0,0,1,11.9-4.91C907.06,66.08,914.27,73.68,914.27,83.73Z"/><line class="cls-5" x1="487.75" y1="595.34" x2="487.75" y2="435.06"/><line class="cls-5" x1="603.49" y1="509.6" x2="603.49" y2="319.32"/><path class="cls-6" d="M1760,509.61,1774.59,610l-1272.92,3.3L605.35,509.62h0s22.09-29.14,67.72-28S729.82,504,777.3,506.78s63.48-31.7,94.3-27.53c23.31,3.16,42.7,22.39,75.32,30.36Z"/><rect class="cls-7" x="846.19" y="175.97" width="186.88" height="88.36"/><path class="cls-8" d="M1033.07,265.53H846.19a1.21,1.21,0,0,1-1.21-1.21V176a1.21,1.21,0,0,1,1.21-1.21h186.88a1.21,1.21,0,0,1,1.21,1.21v88.35A1.21,1.21,0,0,1,1033.07,265.53Zm-185.68-2.41h184.48v-86H847.39Z"/><polygon class="cls-7" points="1033.07 175.97 846.19 175.97 873.94 148.21 1060.82 148.21 1033.07 175.97"/><path class="cls-8" d="M1033.07,177.17H846.19a1.2,1.2,0,0,1-.85-2l27.75-27.76a1.17,1.17,0,0,1,.85-.35h186.88a1.2,1.2,0,0,1,.86,2.05l-27.76,27.76A1.17,1.17,0,0,1,1033.07,177.17Zm-184-2.41h183.47l25.35-25.34H874.44Z"/><polygon class="cls-7" points="1060.82 148.21 1060.82 236.57 1057.2 240.2 1033.07 264.32 1033.07 229.28 1033.07 175.97 1033.07 175.97 1060.82 148.21"/><path class="cls-8" d="M1033.07,265.53a1.25,1.25,0,0,1-.46-.09,1.21,1.21,0,0,1-.74-1.11V176a1.18,1.18,0,0,1,.36-.85.23.23,0,0,1,.07-.07L1060,147.36a1.2,1.2,0,0,1,1.31-.26,1.22,1.22,0,0,1,.75,1.11v88.36a1.18,1.18,0,0,1-.36.85l-27.75,27.76A1.19,1.19,0,0,1,1033.07,265.53Zm1.2-89.06v85l25.34-25.35V151.12Z"/><rect class="cls-9" x="1011.18" y="182.66" width="12.85" height="74.97"/><rect class="cls-9" x="988.9" y="182.66" width="12.85" height="74.97"/><rect class="cls-9" x="966.62" y="182.66" width="12.85" height="74.97"/><rect class="cls-9" x="944.34" y="182.66" width="12.85" height="74.97"/><rect class="cls-9" x="922.06" y="182.66" width="12.85" height="74.97"/><rect class="cls-9" x="899.79" y="182.66" width="12.85" height="74.97"/><rect class="cls-9" x="877.51" y="182.66" width="12.85" height="74.97"/><rect class="cls-9" x="855.23" y="182.66" width="12.85" height="74.97"/><polygon class="cls-8" points="869.89 259.44 855.23 259.44 855.23 255.82 866.27 255.82 866.27 182.66 869.89 182.66 869.89 259.44"/><polygon class="cls-8" points="892.17 259.44 877.51 259.44 877.51 255.82 888.55 255.82 888.55 182.66 892.17 182.66 892.17 259.44"/><polygon class="cls-8" points="914.45 259.44 899.78 259.44 899.78 255.82 910.83 255.82 910.83 182.66 914.45 182.66 914.45 259.44"/><polygon class="cls-8" points="936.72 259.44 922.06 259.44 922.06 255.82 933.11 255.82 933.11 182.66 936.72 182.66 936.72 259.44"/><polygon class="cls-8" points="959 259.44 944.34 259.44 944.34 255.82 955.39 255.82 955.39 182.66 959 182.66 959 259.44"/><polygon class="cls-8" points="981.28 259.44 966.62 259.44 966.62 255.82 977.67 255.82 977.67 182.66 981.28 182.66 981.28 259.44"/><polygon class="cls-8" points="1003.56 259.44 988.9 259.44 988.9 255.82 999.95 255.82 999.95 182.66 1003.56 182.66 1003.56 259.44"/><polygon class="cls-8" points="1025.84 259.44 1011.18 259.44 1011.18 255.82 1022.22 255.82 1022.22 182.66 1025.84 182.66 1025.84 259.44"/><rect class="cls-8" x="1043.78" y="164.37" width="2.41" height="88.36"/><rect class="cls-8" x="1047.71" y="159.93" width="2.41" height="88.36"/><rect class="cls-7" x="378.89" y="240.89" width="186.88" height="88.36"/><path class="cls-8" d="M565.77,330.45H378.89a1.21,1.21,0,0,1-1.21-1.21V240.89a1.21,1.21,0,0,1,1.21-1.21H565.77a1.21,1.21,0,0,1,1.21,1.21v88.35A1.21,1.21,0,0,1,565.77,330.45ZM380.09,328H564.57v-86H380.09Z"/><polygon class="cls-7" points="565.77 240.89 378.89 240.89 406.64 213.13 593.52 213.13 565.77 240.89"/><path class="cls-8" d="M565.77,242.09H378.89A1.2,1.2,0,0,1,378,240l27.76-27.76a1.18,1.18,0,0,1,.85-.36H593.52a1.22,1.22,0,0,1,1.12.75,1.2,1.2,0,0,1-.27,1.31l-27.75,27.76A1.21,1.21,0,0,1,565.77,242.09Zm-184-2.41H565.27l25.34-25.35H407.14Z"/><polygon class="cls-7" points="593.52 213.13 593.52 301.49 589.9 305.12 565.77 329.24 565.77 294.2 565.77 240.89 565.77 240.89 593.52 213.13"/><path class="cls-8" d="M565.77,330.45a1.25,1.25,0,0,1-.46-.09,1.21,1.21,0,0,1-.74-1.12V240.89a1.25,1.25,0,0,1,.35-.86L565,240l27.68-27.69a1.2,1.2,0,0,1,2.05.85v88.36a1.19,1.19,0,0,1-.35.85l-27.75,27.75A1.16,1.16,0,0,1,565.77,330.45Zm1.2-89.06v84.94L592.32,301V216Z"/><rect class="cls-9" x="543.88" y="247.58" width="12.85" height="74.97"/><rect class="cls-9" x="521.6" y="247.58" width="12.85" height="74.97"/><rect class="cls-9" x="499.32" y="247.58" width="12.85" height="74.97"/><rect class="cls-9" x="477.04" y="247.58" width="12.85" height="74.97"/><rect class="cls-9" x="454.76" y="247.58" width="12.85" height="74.97"/><rect class="cls-9" x="432.48" y="247.58" width="12.85" height="74.97"/><rect class="cls-9" x="410.21" y="247.58" width="12.85" height="74.97"/><rect class="cls-9" x="387.93" y="247.58" width="12.85" height="74.97"/><polygon class="cls-8" points="402.58 324.36 387.93 324.36 387.93 320.74 398.97 320.74 398.97 247.58 402.58 247.58 402.58 324.36"/><polygon class="cls-8" points="424.86 324.36 410.2 324.36 410.2 320.74 421.25 320.74 421.25 247.58 424.86 247.58 424.86 324.36"/><polygon class="cls-8" points="447.14 324.36 432.48 324.36 432.48 320.74 443.53 320.74 443.53 247.58 447.14 247.58 447.14 324.36"/><polygon class="cls-8" points="469.42 324.36 454.76 324.36 454.76 320.74 465.81 320.74 465.81 247.58 469.42 247.58 469.42 324.36"/><polygon class="cls-8" points="491.7 324.36 477.04 324.36 477.04 320.74 488.09 320.74 488.09 247.58 491.7 247.58 491.7 324.36"/><polygon class="cls-8" points="513.98 324.36 499.32 324.36 499.32 320.74 510.37 320.74 510.37 247.58 513.98 247.58 513.98 324.36"/><polygon class="cls-8" points="536.26 324.36 521.6 324.36 521.6 320.74 532.64 320.74 532.64 247.58 536.26 247.58 536.26 324.36"/><polygon class="cls-8" points="558.54 324.36 543.88 324.36 543.88 320.74 554.92 320.74 554.92 247.58 558.54 247.58 558.54 324.36"/><rect class="cls-8" x="576.48" y="229.28" width="2.41" height="88.36"/><rect class="cls-8" x="580.41" y="224.84" width="2.41" height="88.36"/><rect class="cls-4" x="348.73" y="271.05" width="186.88" height="88.36"/><path class="cls-10" d="M535.61,360.61H348.73a1.2,1.2,0,0,1-1.21-1.2V271.05a1.21,1.21,0,0,1,1.21-1.2H535.61a1.21,1.21,0,0,1,1.21,1.2v88.36A1.2,1.2,0,0,1,535.61,360.61Zm-185.68-2.4H534.41V272.26H349.93Z"/><polygon class="cls-4" points="535.61 271.06 348.73 271.06 376.48 243.3 563.36 243.3 535.61 271.06"/><path class="cls-10" d="M535.61,272.26H348.73a1.21,1.21,0,0,1-1.12-.74,1.24,1.24,0,0,1,.26-1.32l27.75-27.76a1.25,1.25,0,0,1,.86-.35H563.36a1.21,1.21,0,0,1,.85,2.06l-27.75,27.76A1.21,1.21,0,0,1,535.61,272.26Zm-184-2.41H535.11l25.34-25.35H377Z"/><polygon class="cls-4" points="563.36 243.3 563.36 331.66 559.74 335.28 535.61 359.41 535.61 324.37 535.61 271.05 535.61 271.05 563.36 243.3"/><path class="cls-10" d="M535.61,360.62a1.09,1.09,0,0,1-.46-.1,1.19,1.19,0,0,1-.74-1.11V271.05a1.23,1.23,0,0,1,.35-.85l.08-.07,27.68-27.68a1.2,1.2,0,0,1,2,.85v88.36a1.19,1.19,0,0,1-.35.85l-27.75,27.75A1.21,1.21,0,0,1,535.61,360.62Zm1.2-89.06V356.5l25.33-25.34v-85Z"/><rect class="cls-11" x="513.72" y="277.75" width="12.85" height="74.97"/><rect class="cls-11" x="491.44" y="277.75" width="12.85" height="74.97"/><rect class="cls-11" x="469.16" y="277.75" width="12.85" height="74.97"/><rect class="cls-11" x="446.88" y="277.75" width="12.85" height="74.97"/><rect class="cls-11" x="424.6" y="277.75" width="12.85" height="74.97"/><rect class="cls-11" x="402.32" y="277.75" width="12.85" height="74.97"/><rect class="cls-11" x="380.04" y="277.75" width="12.85" height="74.97"/><rect class="cls-11" x="357.77" y="277.75" width="12.85" height="74.97"/><polygon class="cls-10" points="372.42 354.52 357.77 354.52 357.77 350.91 368.81 350.91 368.81 277.75 372.42 277.75 372.42 354.52"/><polygon class="cls-10" points="394.7 354.52 380.05 354.52 380.05 350.91 391.09 350.91 391.09 277.75 394.7 277.75 394.7 354.52"/><polygon class="cls-10" points="416.98 354.52 402.32 354.52 402.32 350.91 413.37 350.91 413.37 277.75 416.98 277.75 416.98 354.52"/><polygon class="cls-10" points="439.26 354.52 424.6 354.52 424.6 350.91 435.65 350.91 435.65 277.75 439.26 277.75 439.26 354.52"/><polygon class="cls-10" points="461.54 354.52 446.88 354.52 446.88 350.91 457.93 350.91 457.93 277.75 461.54 277.75 461.54 354.52"/><polygon class="cls-10" points="483.82 354.52 469.16 354.52 469.16 350.91 480.2 350.91 480.2 277.75 483.82 277.75 483.82 354.52"/><polygon class="cls-10" points="506.1 354.52 491.44 354.52 491.44 350.91 502.48 350.91 502.48 277.75 506.1 277.75 506.1 354.52"/><polygon class="cls-10" points="528.38 354.52 513.72 354.52 513.72 350.91 524.76 350.91 524.76 277.75 528.38 277.75 528.38 354.52"/><rect class="cls-10" x="548.28" y="257.18" width="2.41" height="88.36"/><rect class="cls-4" x="1035.18" y="175.97" width="186.88" height="88.36"/><path class="cls-10" d="M1222.07,265.53H1035.18a1.21,1.21,0,0,1-1.2-1.21V176a1.21,1.21,0,0,1,1.2-1.21h186.89a1.2,1.2,0,0,1,1.2,1.21v88.35A1.2,1.2,0,0,1,1222.07,265.53Zm-185.68-2.41h184.47v-86H1036.39Z"/><polygon class="cls-4" points="1222.07 175.97 1035.18 175.97 1062.94 148.21 1249.82 148.21 1222.07 175.97"/><path class="cls-10" d="M1222.07,177.17H1035.18a1.2,1.2,0,0,1-.85-2l27.75-27.76a1.21,1.21,0,0,1,.86-.35h186.88a1.2,1.2,0,0,1,.85,2.05l-27.75,27.76A1.17,1.17,0,0,1,1222.07,177.17Zm-184-2.41h183.48l25.34-25.34H1063.43Z"/><polygon class="cls-4" points="1249.82 148.21 1249.82 236.57 1246.2 240.2 1222.07 264.32 1222.07 229.28 1222.07 175.97 1222.07 175.97 1249.82 148.21"/><path class="cls-10" d="M1222.07,265.53a1.25,1.25,0,0,1-.46-.09,1.21,1.21,0,0,1-.74-1.11V176a1.21,1.21,0,0,1,.35-.85l.08-.07L1249,147.36a1.2,1.2,0,0,1,2,.85v88.36a1.17,1.17,0,0,1-.35.85l-27.75,27.76A1.2,1.2,0,0,1,1222.07,265.53Zm1.2-89.06v85l25.33-25.35V151.12Z"/><rect class="cls-11" x="1200.18" y="182.66" width="12.85" height="74.97"/><rect class="cls-11" x="1177.9" y="182.66" width="12.85" height="74.97"/><rect class="cls-11" x="1155.62" y="182.66" width="12.85" height="74.97"/><rect class="cls-11" x="1133.34" y="182.66" width="12.85" height="74.97"/><rect class="cls-11" x="1111.06" y="182.66" width="12.85" height="74.97"/><rect class="cls-11" x="1088.78" y="182.66" width="12.85" height="74.97"/><rect class="cls-11" x="1066.5" y="182.66" width="12.85" height="74.97"/><rect class="cls-11" x="1044.23" y="182.66" width="12.85" height="74.97"/><polygon class="cls-10" points="1058.88 259.44 1044.22 259.44 1044.22 255.82 1055.27 255.82 1055.27 182.66 1058.88 182.66 1058.88 259.44"/><polygon class="cls-10" points="1081.16 259.44 1066.5 259.44 1066.5 255.82 1077.55 255.82 1077.55 182.66 1081.16 182.66 1081.16 259.44"/><polygon class="cls-10" points="1103.44 259.44 1088.78 259.44 1088.78 255.82 1099.83 255.82 1099.83 182.66 1103.44 182.66 1103.44 259.44"/><polygon class="cls-10" points="1125.72 259.44 1111.06 259.44 1111.06 255.82 1122.11 255.82 1122.11 182.66 1125.72 182.66 1125.72 259.44"/><polygon class="cls-10" points="1148 259.44 1133.34 259.44 1133.34 255.82 1144.38 255.82 1144.38 182.66 1148 182.66 1148 259.44"/><polygon class="cls-10" points="1170.28 259.44 1155.62 259.44 1155.62 255.82 1166.66 255.82 1166.66 182.66 1170.28 182.66 1170.28 259.44"/><polygon class="cls-10" points="1192.56 259.44 1177.9 259.44 1177.9 255.82 1188.94 255.82 1188.94 182.66 1192.56 182.66 1192.56 259.44"/><polygon class="cls-10" points="1214.84 259.44 1200.18 259.44 1200.18 255.82 1211.22 255.82 1211.22 182.66 1214.84 182.66 1214.84 259.44"/><rect class="cls-10" x="1234.74" y="162.09" width="2.41" height="88.36"/><rect class="cls-12" x="869.74" y="205.06" width="186.88" height="88.36"/><path class="cls-13" d="M1056.62,294.62H869.74a1.21,1.21,0,0,1-1.21-1.2V205.06a1.21,1.21,0,0,1,1.21-1.2h186.88a1.2,1.2,0,0,1,1.2,1.2v88.36A1.2,1.2,0,0,1,1056.62,294.62Zm-185.68-2.41h184.48V206.27H870.94Z"/><polygon class="cls-12" points="1056.62 205.06 869.74 205.06 897.49 177.31 1084.37 177.31 1056.62 205.06"/><path class="cls-13" d="M1056.62,206.27H869.74a1.21,1.21,0,0,1-.86-2.06l27.75-27.76a1.25,1.25,0,0,1,.86-.35h186.88a1.19,1.19,0,0,1,1.11.74,1.2,1.2,0,0,1-.26,1.32l-27.75,27.76A1.21,1.21,0,0,1,1056.62,206.27Zm-184-2.41h183.48l25.34-25.35H898Z"/><polygon class="cls-12" points="1084.37 177.31 1084.37 265.67 1080.75 269.29 1056.62 293.42 1056.62 258.38 1056.62 205.06 1056.62 205.06 1084.37 177.31"/><path class="cls-13" d="M1056.62,294.62a1.25,1.25,0,0,1-.46-.09,1.19,1.19,0,0,1-.74-1.11V205.06a1.23,1.23,0,0,1,.35-.85l.08-.07,27.68-27.68a1.2,1.2,0,0,1,2,.85v88.36a1.2,1.2,0,0,1-.35.85l-27.75,27.75A1.2,1.2,0,0,1,1056.62,294.62Zm1.2-89.05v84.94l25.33-25.34v-85Z"/><rect class="cls-14" x="1034.73" y="211.76" width="12.85" height="74.97"/><rect class="cls-14" x="990.17" y="211.76" width="12.85" height="74.97"/><rect class="cls-14" x="967.89" y="211.76" width="12.85" height="74.97"/><rect class="cls-14" x="945.61" y="211.76" width="12.85" height="74.97"/><rect class="cls-14" x="923.33" y="211.76" width="12.85" height="74.97"/><rect class="cls-14" x="901.05" y="211.76" width="12.85" height="74.97"/><rect class="cls-14" x="878.78" y="211.76" width="12.85" height="74.97"/><rect class="cls-14" x="1012.45" y="211.76" width="12.85" height="74.97"/><polygon class="cls-13" points="1027.11 288.53 1012.45 288.53 1012.45 284.92 1023.49 284.92 1023.49 211.76 1027.11 211.76 1027.11 288.53"/><polygon class="cls-13" points="893.43 288.53 878.78 288.53 878.78 284.92 889.82 284.92 889.82 211.76 893.43 211.76 893.43 288.53"/><polygon class="cls-13" points="915.71 288.53 901.05 288.53 901.05 284.92 912.1 284.92 912.1 211.76 915.71 211.76 915.71 288.53"/><polygon class="cls-13" points="937.99 288.53 923.33 288.53 923.33 284.92 934.38 284.92 934.38 211.76 937.99 211.76 937.99 288.53"/><polygon class="cls-13" points="960.27 288.53 945.61 288.53 945.61 284.92 956.66 284.92 956.66 211.76 960.27 211.76 960.27 288.53"/><polygon class="cls-13" points="982.55 288.53 967.89 288.53 967.89 284.92 978.94 284.92 978.94 211.76 982.55 211.76 982.55 288.53"/><polygon class="cls-13" points="1004.83 288.53 990.17 288.53 990.17 284.92 1001.22 284.92 1001.22 211.76 1004.83 211.76 1004.83 288.53"/><polygon class="cls-13" points="1049.39 288.53 1034.73 288.53 1034.73 284.92 1045.77 284.92 1045.77 211.76 1049.39 211.76 1049.39 288.53"/><rect class="cls-13" x="1069.29" y="191.18" width="2.41" height="88.36"/><rect class="cls-12" x="318.61" y="301.22" width="186.88" height="88.36"/><path class="cls-13" d="M505.5,390.78H318.61a1.2,1.2,0,0,1-1.2-1.2V301.22a1.2,1.2,0,0,1,1.2-1.2H505.5a1.2,1.2,0,0,1,1.2,1.2v88.36A1.2,1.2,0,0,1,505.5,390.78Zm-185.68-2.41H504.29V302.43H319.82Z"/><polygon class="cls-12" points="505.5 301.22 318.61 301.22 346.36 273.46 533.25 273.46 505.5 301.22"/><path class="cls-13" d="M505.5,302.43H318.61a1.21,1.21,0,0,1-.85-2.06l27.75-27.76a1.23,1.23,0,0,1,.85-.35H533.25a1.21,1.21,0,0,1,.85,2.06l-27.75,27.75A1.21,1.21,0,0,1,505.5,302.43Zm-184-2.41H505l25.34-25.35H346.86Z"/><polygon class="cls-12" points="533.24 273.47 533.24 361.82 529.62 365.45 505.5 389.58 505.5 354.54 505.49 301.22 505.5 301.22 533.24 273.47"/><path class="cls-13" d="M505.5,390.78a1.18,1.18,0,0,1-.46-.09,1.2,1.2,0,0,1-.75-1.11V301.22a1.19,1.19,0,0,1,.35-.85l.07-.07,27.68-27.68a1.21,1.21,0,0,1,2.06.85v88.36a1.25,1.25,0,0,1-.35.85l-27.75,27.75A1.2,1.2,0,0,1,505.5,390.78Zm1.2-89v84.94L532,361.33V276.38Z"/><rect class="cls-14" x="483.6" y="307.92" width="12.85" height="74.97"/><rect class="cls-14" x="439.05" y="307.92" width="12.85" height="74.97"/><rect class="cls-14" x="416.77" y="307.92" width="12.85" height="74.97"/><rect class="cls-14" x="394.49" y="307.92" width="12.85" height="74.97"/><rect class="cls-14" x="372.21" y="307.92" width="12.85" height="74.97"/><rect class="cls-14" x="349.93" y="307.92" width="12.85" height="74.97"/><rect class="cls-14" x="327.65" y="307.92" width="12.85" height="74.97"/><rect class="cls-14" x="461.32" y="307.92" width="12.85" height="74.97"/><polygon class="cls-13" points="475.98 384.69 461.32 384.69 461.32 381.08 472.37 381.08 472.37 307.92 475.98 307.92 475.98 384.69"/><polygon class="cls-13" points="342.31 384.69 327.65 384.69 327.65 381.08 338.69 381.08 338.69 307.92 342.31 307.92 342.31 384.69"/><polygon class="cls-13" points="364.59 384.69 349.93 384.69 349.93 381.08 360.97 381.08 360.97 307.92 364.59 307.92 364.59 384.69"/><polygon class="cls-13" points="386.87 384.69 372.21 384.69 372.21 381.08 383.25 381.08 383.25 307.92 386.87 307.92 386.87 384.69"/><polygon class="cls-13" points="409.15 384.69 394.49 384.69 394.49 381.08 405.53 381.08 405.53 307.92 409.15 307.92 409.15 384.69"/><polygon class="cls-13" points="431.43 384.69 416.77 384.69 416.77 381.08 427.81 381.08 427.81 307.92 431.43 307.92 431.43 384.69"/><polygon class="cls-13" points="453.7 384.69 439.05 384.69 439.05 381.08 450.09 381.08 450.09 307.92 453.7 307.92 453.7 384.69"/><polygon class="cls-13" points="498.26 384.69 483.6 384.69 483.6 381.08 494.65 381.08 494.65 307.92 498.26 307.92 498.26 384.69"/><rect class="cls-13" x="518.17" y="287.34" width="2.41" height="88.36"/><rect class="cls-12" x="984.63" y="86.63" width="186.88" height="88.36"/><path class="cls-13" d="M1171.52,176.19H984.63a1.21,1.21,0,0,1-1.2-1.21V86.63a1.21,1.21,0,0,1,1.2-1.21h186.89a1.21,1.21,0,0,1,1.2,1.21V175A1.21,1.21,0,0,1,1171.52,176.19Zm-185.68-2.41h184.47V87.83H985.84Z"/><polygon class="cls-12" points="1171.52 86.63 984.63 86.63 1012.38 58.87 1199.27 58.87 1171.52 86.63"/><path class="cls-13" d="M1171.52,87.83H984.63a1.19,1.19,0,0,1-1.11-.74,1.2,1.2,0,0,1,.26-1.32L1011.53,58a1.23,1.23,0,0,1,.85-.35h186.89a1.22,1.22,0,0,1,1.11.75,1.2,1.2,0,0,1-.26,1.31l-27.75,27.76A1.23,1.23,0,0,1,1171.52,87.83Zm-184-2.41H1171l25.34-25.35H1012.88Z"/><polygon class="cls-12" points="1199.27 58.87 1199.27 147.23 1195.64 150.85 1171.52 174.98 1171.52 139.94 1171.51 86.62 1171.52 86.62 1199.27 58.87"/><path class="cls-13" d="M1171.52,176.19a1.06,1.06,0,0,1-.46-.1,1.2,1.2,0,0,1-.75-1.11V86.62a1.19,1.19,0,0,1,.35-.85.46.46,0,0,0,.07-.07L1198.41,58a1.2,1.2,0,0,1,1.32-.26,1.19,1.19,0,0,1,.74,1.11v88.36a1.23,1.23,0,0,1-.35.85l-27.75,27.75A1.21,1.21,0,0,1,1171.52,176.19Zm1.2-89.06v84.94l25.34-25.34V61.78Z"/><rect class="cls-14" x="1149.62" y="93.32" width="12.85" height="74.97"/><rect class="cls-14" x="1105.07" y="93.32" width="12.85" height="74.97"/><rect class="cls-14" x="1082.79" y="93.32" width="12.85" height="74.97"/><rect class="cls-14" x="1060.51" y="93.32" width="12.85" height="74.97"/><rect class="cls-14" x="1038.23" y="93.32" width="12.85" height="74.97"/><rect class="cls-14" x="1015.95" y="93.32" width="12.85" height="74.97"/><rect class="cls-14" x="993.67" y="93.32" width="12.85" height="74.97"/><rect class="cls-14" x="1127.34" y="93.32" width="12.85" height="74.97"/><polygon class="cls-13" points="1142 170.09 1127.35 170.09 1127.35 166.48 1138.39 166.48 1138.39 93.32 1142 93.32 1142 170.09"/><polygon class="cls-13" points="1008.33 170.09 993.67 170.09 993.67 166.48 1004.72 166.48 1004.72 93.32 1008.33 93.32 1008.33 170.09"/><polygon class="cls-13" points="1030.61 170.09 1015.95 170.09 1015.95 166.48 1026.99 166.48 1026.99 93.32 1030.61 93.32 1030.61 170.09"/><polygon class="cls-13" points="1052.89 170.09 1038.23 170.09 1038.23 166.48 1049.27 166.48 1049.27 93.32 1052.89 93.32 1052.89 170.09"/><polygon class="cls-13" points="1075.17 170.09 1060.51 170.09 1060.51 166.48 1071.55 166.48 1071.55 93.32 1075.17 93.32 1075.17 170.09"/><polygon class="cls-13" points="1097.45 170.09 1082.79 170.09 1082.79 166.48 1093.83 166.48 1093.83 93.32 1097.45 93.32 1097.45 170.09"/><polygon class="cls-13" points="1119.72 170.09 1105.07 170.09 1105.07 166.48 1116.11 166.48 1116.11 93.32 1119.72 93.32 1119.72 170.09"/><polygon class="cls-13" points="1164.28 170.09 1149.62 170.09 1149.62 166.48 1160.67 166.48 1160.67 93.32 1164.28 93.32 1164.28 170.09"/><rect class="cls-13" x="1184.19" y="72.75" width="2.41" height="88.36"/><rect class="cls-7" x="348.72" y="180.7" width="186.88" height="88.36"/><path class="cls-8" d="M535.61,270.26H348.73a1.21,1.21,0,0,1-1.21-1.21V180.7a1.21,1.21,0,0,1,1.21-1.21H535.61a1.2,1.2,0,0,1,1.2,1.21v88.35A1.2,1.2,0,0,1,535.61,270.26Zm-185.68-2.41H534.4v-86H349.93Z"/><polygon class="cls-7" points="535.61 180.7 348.73 180.7 376.48 152.94 563.36 152.94 535.61 180.7"/><path class="cls-8" d="M535.61,181.9H348.73a1.2,1.2,0,0,1-.86-2.05l27.75-27.76a1.21,1.21,0,0,1,.86-.35H563.36a1.2,1.2,0,0,1,.85,2l-27.75,27.76A1.17,1.17,0,0,1,535.61,181.9Zm-184-2.41H535.11l25.34-25.34H377Z"/><polygon class="cls-7" points="563.36 152.94 563.36 241.3 559.74 244.93 535.61 269.06 535.61 234.01 535.61 180.7 535.61 180.7 563.36 152.94"/><path class="cls-8" d="M535.61,270.26a1.25,1.25,0,0,1-.46-.09,1.21,1.21,0,0,1-.74-1.12V180.7a1.21,1.21,0,0,1,.35-.85l.08-.07,27.68-27.69a1.2,1.2,0,0,1,2,.85V241.3a1.17,1.17,0,0,1-.35.85l-27.75,27.76A1.2,1.2,0,0,1,535.61,270.26Zm1.2-89.06v84.95l25.33-25.35v-85Z"/><rect class="cls-9" x="513.72" y="187.39" width="12.85" height="74.97"/><rect class="cls-9" x="491.44" y="187.39" width="12.85" height="74.97"/><rect class="cls-9" x="469.16" y="187.39" width="12.85" height="74.97"/><rect class="cls-9" x="446.88" y="187.39" width="12.85" height="74.97"/><rect class="cls-9" x="424.6" y="187.39" width="12.85" height="74.97"/><rect class="cls-9" x="402.32" y="187.39" width="12.85" height="74.97"/><rect class="cls-9" x="380.04" y="187.39" width="12.85" height="74.97"/><rect class="cls-9" x="357.77" y="187.39" width="12.85" height="74.97"/><polygon class="cls-8" points="372.42 264.17 357.77 264.17 357.77 260.55 368.81 260.55 368.81 187.39 372.42 187.39 372.42 264.17"/><polygon class="cls-8" points="394.7 264.17 380.04 264.17 380.04 260.55 391.09 260.55 391.09 187.39 394.7 187.39 394.7 264.17"/><polygon class="cls-8" points="416.98 264.17 402.32 264.17 402.32 260.55 413.37 260.55 413.37 187.39 416.98 187.39 416.98 264.17"/><polygon class="cls-8" points="439.26 264.17 424.6 264.17 424.6 260.55 435.65 260.55 435.65 187.39 439.26 187.39 439.26 264.17"/><polygon class="cls-8" points="461.54 264.17 446.88 264.17 446.88 260.55 457.93 260.55 457.93 187.39 461.54 187.39 461.54 264.17"/><polygon class="cls-8" points="483.82 264.17 469.16 264.17 469.16 260.55 480.2 260.55 480.2 187.39 483.82 187.39 483.82 264.17"/><polygon class="cls-8" points="506.1 264.17 491.44 264.17 491.44 260.55 502.48 260.55 502.48 187.39 506.1 187.39 506.1 264.17"/><polygon class="cls-8" points="528.38 264.17 513.72 264.17 513.72 260.55 524.76 260.55 524.76 187.39 528.38 187.39 528.38 264.17"/><rect class="cls-8" x="546.32" y="169.1" width="2.41" height="88.36"/><rect class="cls-8" x="550.24" y="164.66" width="2.41" height="88.36"/><path class="cls-7" d="M697.85,410.15a30.1,30.1,0,0,1-30.12,30.12H645.44v22.16a3.92,3.92,0,0,1-7.84,0V383.82a3.88,3.88,0,0,1,3.92-3.92h26.21A30.13,30.13,0,0,1,697.85,410.15Zm-7.72,0a22.6,22.6,0,0,0-22.4-22.53H645.44v44.93h22.29A22.57,22.57,0,0,0,690.13,410.15Z"/><path class="cls-7" d="M810.3,404a3.86,3.86,0,0,1-3.92,3.92c-10.77,0-19,8.82-19,20.45v34a3.86,3.86,0,1,1-7.71,0V404a3.86,3.86,0,0,1,7.71,0v4a26.16,26.16,0,0,1,19-7.83A3.84,3.84,0,0,1,810.3,404Z"/><path class="cls-7" d="M772.8,430.65h-5.23a33,33,0,0,0-14.19-24.58l2.61-4.53a2.63,2.63,0,1,0-4.56-2.63l-2.61,4.52a33.08,33.08,0,0,0-28.39,0l-2.6-4.52a2.64,2.64,0,0,0-4.57,2.63l2.61,4.53a33.08,33.08,0,0,0-14.19,24.58h-5.23a2.64,2.64,0,1,0,0,5.27h5.23a33.06,33.06,0,0,0,14.19,24.58L713.26,465a2.62,2.62,0,0,0,1,3.6,2.59,2.59,0,0,0,1.31.36,2.66,2.66,0,0,0,2.29-1.32l2.6-4.52a33.08,33.08,0,0,0,28.39,0l2.61,4.52a2.62,2.62,0,0,0,2.28,1.32,2.64,2.64,0,0,0,2.28-4l-2.61-4.53a33,33,0,0,0,14.19-24.58h5.23a2.64,2.64,0,1,0,0-5.27Zm-13.09,0H747.58a13.12,13.12,0,0,0-4.19-7.26l6.1-10.57A25.31,25.31,0,0,1,759.71,430.65Zm-33,2.58a7.9,7.9,0,1,1,7.9,7.9A7.9,7.9,0,0,1,726.76,433.23Zm7.87-25.29a25,25,0,0,1,10.31,2.22l-6.11,10.58a13,13,0,0,0-8.4,0l-6.11-10.6A25,25,0,0,1,734.63,407.94Zm-14.87,4.88,6.13,10.61a13.17,13.17,0,0,0-4.15,7.22h-12.2A25.35,25.35,0,0,1,719.76,412.82Zm-10.22,23.1h12.23a13.24,13.24,0,0,0,4.16,7.15l-6.13,10.64A25.15,25.15,0,0,1,709.54,435.92Zm25.09,22.59a25.3,25.3,0,0,1-10.27-2.17l6.13-10.62a13.4,13.4,0,0,0,4.17.68,13.25,13.25,0,0,0,4.11-.66l6.12,10.6A25.21,25.21,0,0,1,734.63,458.51Zm14.83-4.8-6.12-10.6a13.18,13.18,0,0,0,4.22-7.19h12.15A25.17,25.17,0,0,1,749.46,453.71Z"/><line class="cls-7" x1="830.65" y1="415.2" x2="830.49" y2="415.09"/><line class="cls-7" x1="830.65" y1="410.52" x2="830.49" y2="410.41"/><line class="cls-7" x1="839.09" y1="416.43" x2="838.93" y2="416.32"/><line class="cls-7" x1="830.65" y1="405.84" x2="830.49" y2="405.72"/><line class="cls-7" x1="839.09" y1="411.75" x2="838.93" y2="411.64"/><line class="cls-7" x1="839.09" y1="407.07" x2="830.49" y2="401.05"/><line class="cls-7" x1="830.65" y1="396.48" x2="830.49" y2="396.37"/><line class="cls-7" x1="839.09" y1="402.4" x2="838.93" y2="402.28"/><path class="cls-7" d="M838.18,404.87l-6.78-4.75-.26-.19-.11-.07v2.76l.37.26,6.78,4.75.26.18.12.07v-2.75Z"/><path class="cls-7" d="M831.14,399.93l-.11-.07a1.29,1.29,0,0,0-.38-.12v2.62l.38.26.37.26v-2.76Zm0,0-.11-.07a1.29,1.29,0,0,0-.38-.12v2.62l.38.26.37.26v-2.76Zm0,0-.11-.07a1.29,1.29,0,0,0-.38-.12v2.62l.38.26.37.26v-2.76Zm0,0-.11-.07a1.29,1.29,0,0,0-.38-.12v2.62l.38.26.37.26v-2.76Zm0,0-.11-.07a1.29,1.29,0,0,0-.38-.12v2.62l.38.26.37.26v-2.76Zm0,0-.11-.07a1.29,1.29,0,0,0-.38-.12v2.62l.38.26.37.26v-2.76Zm7.42,5.2-.38-.26v2.76l.26.18.12.07a1,1,0,0,0,.37.11v-2.6Zm-7.42-5.2-.11-.07a1.29,1.29,0,0,0-.38-.12v2.62l.38.26.37.26v-2.76Zm0,0-.11-.07a1.29,1.29,0,0,0-.38-.12v2.62l.38.26.37.26v-2.76Zm0,0-.11-.07a1.29,1.29,0,0,0-.38-.12v2.62l.38.26.37.26v-2.76Zm0,0-.11-.07a1.29,1.29,0,0,0-.38-.12v2.62l.38.26.37.26v-2.76Zm0,0-.11-.07a1.29,1.29,0,0,0-.38-.12v2.62l.38.26.37.26v-2.76Z"/><path class="cls-7" d="M838.18,384v15.47l-6.56-4.6a.46.46,0,0,0-.1-.07l-.12-.08V383.83a3.38,3.38,0,0,1,1.12-2.51,3.28,3.28,0,0,1,2.26-.88,2.06,2.06,0,0,1,.35,0A3.49,3.49,0,0,1,838.18,384Z"/><path class="cls-7" d="M863.17,450.09a15.89,15.89,0,0,1-31.77,0V417.27L838,421.9a.59.59,0,0,0,.17.1v27.84a9.31,9.31,0,0,0,8.23,9.31,9.06,9.06,0,0,0,9.81-7.3,1.77,1.77,0,0,0-.37-1.47,1.83,1.83,0,0,0-1.41-.67h-6.15l10.38-9a1.09,1.09,0,0,1,.82-.25,1,1,0,0,1,.71.41A15.89,15.89,0,0,1,863.17,450.09Z"/><path class="cls-7" d="M840.43,378.37l-.2,0h.19l.34,0Z"/><path class="cls-7" d="M828.73,378.85h0a.43.43,0,0,1,0,.05l0-.06Zm.4,3.68a1.07,1.07,0,0,1-.07-.15l.06.16.15.37,0,0h0A1.89,1.89,0,0,1,829.13,382.53Z"/><path class="cls-7" d="M855.91,369.16c0,3.31-2.67,6.09-5.38,7.37a19.83,19.83,0,0,1-6.74,1.62l-.34,0-1.53.11-1.16.06-.33,0-.2,0h0c-3,.15-5.88.41-8.35,1.61a10,10,0,0,0-2.31,1.56l-.09-.37a1.09,1.09,0,0,1,0-.24v0s0,0,0-.06a.06.06,0,0,0,0,0v-.1a1,1,0,0,1,0-.24c0-.14,0-.27,0-.42s0-.24,0-.36a1.09,1.09,0,0,1,0-.18.28.28,0,0,1,0-.09.28.28,0,0,0,0-.09l.06-.36.06-.23a12.21,12.21,0,0,1,1.36-.78,21.38,21.38,0,0,1,7.88-1.76c.64,0,1.26-.08,1.88-.11l1.76-.1L843,376a18.48,18.48,0,0,0,6.54-1.46c2.31-1.09,4.43-3.49,4-5.95a6.15,6.15,0,0,0-3.62-4.18,19.45,19.45,0,0,0-6.47-1.52c-7.1-.75-13-.47-18.11.84-6.26,1.61-11.36,4.88-14.37,9.2a19.26,19.26,0,0,0-2.63,15.72,24.71,24.71,0,0,0,9.73,13.49,53.54,53.54,0,0,0,11.1,6.35,1.74,1.74,0,0,0-.28.32,1.9,1.9,0,0,0-.32,1.35h0v0a2.64,2.64,0,0,0,0,.28,1.34,1.34,0,0,0,0,.2,53.42,53.42,0,0,1-11.8-6.69,26.86,26.86,0,0,1-10.6-14.76,21.48,21.48,0,0,1,3-17.58c3.32-4.76,8.88-8.35,15.66-10.11a45.22,45.22,0,0,1,11.34-1.31,72.7,72.7,0,0,1,7.57.42,21.6,21.6,0,0,1,7.23,1.74,8.32,8.32,0,0,1,4.85,5.86A5.36,5.36,0,0,1,855.91,369.16Z"/><path class="cls-7" d="M828.73,378.85h0a.43.43,0,0,1,0,.05l0-.06Zm.33,3.53.06.16h0A1.07,1.07,0,0,1,829.06,382.38Zm-.33-3.53h0a.43.43,0,0,1,0,.05l0-.06Zm.33,3.53.06.16h0A1.07,1.07,0,0,1,829.06,382.38Zm0,0,.06.16h0A1.07,1.07,0,0,1,829.06,382.38Zm-.33-3.53h0a.43.43,0,0,1,0,.05l0-.06Zm.33,3.53.06.16h0A1.07,1.07,0,0,1,829.06,382.38Zm-.33-3.53h0a.43.43,0,0,1,0,.05l0-.06Zm.33,3.53.06.16h0A1.07,1.07,0,0,1,829.06,382.38Zm-.33-3.53h0a.43.43,0,0,1,0,.05l0-.06Zm0,0h0a.43.43,0,0,1,0,.05l0-.06Zm.33,3.53.06.16h0A1.07,1.07,0,0,1,829.06,382.38Zm-.33-3.53h0a.43.43,0,0,1,0,.05l0-.06Zm.33,3.53.06.16h0A1.07,1.07,0,0,1,829.06,382.38Zm0,0,.06.16h0A1.07,1.07,0,0,1,829.06,382.38Zm-.33-3.53h0a.43.43,0,0,1,0,.05l0-.06Zm.33,3.53.06.16h0A1.07,1.07,0,0,1,829.06,382.38Zm-.33-3.53h0a.43.43,0,0,1,0,.05l0-.06Zm0,0h0a.43.43,0,0,1,0,.05l0-.06Zm.33,3.53.06.16h0A1.07,1.07,0,0,1,829.06,382.38Zm-.33-3.53h0a.43.43,0,0,1,0,.05l0-.06Zm.33,3.53.06.16h0A1.07,1.07,0,0,1,829.06,382.38Zm0,0,.06.16h0A1.07,1.07,0,0,1,829.06,382.38Zm-.33-3.53h0a.43.43,0,0,1,0,.05l0-.06Zm.33,3.53.06.16h0A1.07,1.07,0,0,1,829.06,382.38Zm-.33-3.53h0a.43.43,0,0,1,0,.05l0-.06Zm0,0h0a.43.43,0,0,1,0,.05l0-.06Zm.33,3.53.06.16h0A1.07,1.07,0,0,1,829.06,382.38Z"/><path class="cls-7" d="M829.13,382.53a1.07,1.07,0,0,1-.07-.15l.06.16.15.37,0,0h0A1.89,1.89,0,0,1,829.13,382.53Zm-.39-3.68h0c-.22.17-.43.33-.63.51a7.68,7.68,0,0,1,.63-.5.43.43,0,0,1,0,.05Zm0,0h0c-.22.17-.43.33-.63.51a7.68,7.68,0,0,1,.63-.5.43.43,0,0,1,0,.05Zm.39,3.68a1.07,1.07,0,0,1-.07-.15l.06.16.15.37,0,0h0A1.89,1.89,0,0,1,829.13,382.53Zm0,0a1.07,1.07,0,0,1-.07-.15l.06.16.15.37,0,0h0A1.89,1.89,0,0,1,829.13,382.53Zm-.39-3.68h0c-.22.17-.43.33-.63.51a7.68,7.68,0,0,1,.63-.5.43.43,0,0,1,0,.05Zm0,0h0c-.22.17-.43.33-.63.51a7.68,7.68,0,0,1,.63-.5.43.43,0,0,1,0,.05Zm.39,3.68a1.07,1.07,0,0,1-.07-.15l.06.16.15.37,0,0h0A1.89,1.89,0,0,1,829.13,382.53Zm0,0a1.07,1.07,0,0,1-.07-.15l.06.16.15.37,0,0h0A1.89,1.89,0,0,1,829.13,382.53Zm-.39-3.68h0c-.22.17-.43.33-.63.51a7.68,7.68,0,0,1,.63-.5.43.43,0,0,1,0,.05Z"/><path class="cls-7" d="M840,403a1.13,1.13,0,0,1-1.09.45.82.82,0,0,1-.37-.1l-8.74-6.11c-4-2.42-5.86-5.59-5.67-9.42a11,11,0,0,1,1.76-5.42,9,9,0,0,0,1.17,2.62,8.38,8.38,0,0,0-.67,2.91c-.14,2.86,1.23,5.19,4.24,7.16l9.08,6.34A1.12,1.12,0,0,1,840,403Z"/><path class="cls-7" d="M830.65,411.32h0l0,0Z"/><path class="cls-7" d="M861.73,411.32c0,.07,0,.13,0,.2a1.2,1.2,0,0,1-1.2.93H840.64l.12-.2a1.88,1.88,0,0,0-.24-2.06H860.6a1.14,1.14,0,0,1,.87.4A1.12,1.12,0,0,1,861.73,411.32Z"/><path class="cls-7" d="M830.61,411.31l0,0h0Z"/><path class="cls-7" d="M840.09,420.88a1.15,1.15,0,0,1-1.16.58,1,1,0,0,1-.37-.11l-.12-.07-8.53-6a1.19,1.19,0,0,1-.4-1.52,1.1,1.1,0,0,1,.73-.55,1.07,1.07,0,0,1,.25,0,.44.44,0,0,1,.16,0,.89.89,0,0,1,.38.12l.11.07,8.53,6A1.18,1.18,0,0,1,840.09,420.88Z"/><path class="cls-7" d="M830.61,411.31l0,0h0Z"/><path class="cls-7" d="M840.16,416.2a1.1,1.1,0,0,1-1.07.79h-.16a.86.86,0,0,1-.23-.06l-.14-.06s-8.72-6.09-8.72-6.09a1.27,1.27,0,0,1-.28-.29.92.92,0,0,1-.15-.36h0a1.09,1.09,0,0,1,.13-.86h0a.21.21,0,0,1,0-.06,1.12,1.12,0,0,1,.91-.48l.17,0a1.25,1.25,0,0,1,.26.07l.12.05.11.06,8.53,6A1.19,1.19,0,0,1,840.16,416.2Z"/><path class="cls-7" d="M840.09,411.9a1.11,1.11,0,0,1-.69.55,1.23,1.23,0,0,1-.47,0l-.18,0-.19-.08-.12-.07-8.53-6a1.19,1.19,0,0,1-.4-1.52,1.09,1.09,0,0,1,.73-.56,1.06,1.06,0,0,1,.25,0h.16a1.05,1.05,0,0,1,.38.12l.11.07,8.53,6A1.18,1.18,0,0,1,840.09,411.9Z"/><path class="cls-7" d="M840.09,407.4a1.14,1.14,0,0,1-1.16.59,1,1,0,0,1-.37-.11l-.12-.07-8.53-6a1.2,1.2,0,0,1-.4-1.53,1.13,1.13,0,0,1,1-.58h.16a1.29,1.29,0,0,1,.38.12l8.64,6.05A1.18,1.18,0,0,1,840.09,407.4Z"/><path class="cls-7" d="M843.15,379c-.77.06-1.52.1-2.26.14a5.18,5.18,0,0,1,.08,1,6.15,6.15,0,0,1-2,4.58v2.77a8.49,8.49,0,0,0,4.3-7.35A8.26,8.26,0,0,0,843.15,379Zm-14,3.57a1.07,1.07,0,0,1-.07-.15l.06.16.15.37,0,0h0A1.89,1.89,0,0,1,829.13,382.53Zm-.39-3.68h0c-.22.17-.43.33-.63.51a7.68,7.68,0,0,1,.63-.5.43.43,0,0,1,0,.05Zm.39,3.68a1.07,1.07,0,0,1-.07-.15l.06.16.15.37,0,0h0A1.89,1.89,0,0,1,829.13,382.53Zm-.39-3.68h0c-.22.17-.43.33-.63.51a7.68,7.68,0,0,1,.63-.5.43.43,0,0,1,0,.05Zm.39,3.68a1.07,1.07,0,0,1-.07-.15l.06.16.15.37,0,0h0A1.89,1.89,0,0,1,829.13,382.53Zm-.39-3.68h0c-.22.17-.43.33-.63.51a7.68,7.68,0,0,1,.63-.5.43.43,0,0,1,0,.05Zm0,0h0c-.22.17-.43.33-.63.51a7.68,7.68,0,0,1,.63-.5.43.43,0,0,1,0,.05Zm.39,3.68a1.07,1.07,0,0,1-.07-.15l.06.16.15.37,0,0h0A1.89,1.89,0,0,1,829.13,382.53Zm-.39-3.68h0c-.22.17-.43.33-.63.51a7.68,7.68,0,0,1,.63-.5.43.43,0,0,1,0,.05Zm.39,3.68a1.07,1.07,0,0,1-.07-.15l.06.16.15.37,0,0h0A1.89,1.89,0,0,1,829.13,382.53Z"/><path class="cls-7" d="M840.43,378.37l-.2,0h.19l.34,0Z"/><path class="cls-7" d="M841.73,375.28l-1.12.06-.94.06-.79,0a6.17,6.17,0,0,0-10,2.85h0a.65.65,0,0,1,0,.13c0,.08,0,.15-.05.23a1.29,1.29,0,0,0,0,.19h0c-.22.17-.43.33-.63.51a7.68,7.68,0,0,1,.63-.5.43.43,0,0,1,0,.05.09.09,0,0,0,0,0v0c0,.11,0,.22-.06.33v.06l0,.26c0,.14,0,.28,0,.41a5.88,5.88,0,0,0,0,.6h0a4.25,4.25,0,0,0,.07.53l0,.16s0,0,0,.05a2.79,2.79,0,0,0,.1.39l0,.06.09.29.09.23.06.16.15.37,0,0h0a6.18,6.18,0,0,0,1.34,1.74v2.78a8.63,8.63,0,0,1-2.71-2.43,1.09,1.09,0,0,1-.13-.17l-.12-.19c-.08-.13-.16-.26-.23-.39a8.47,8.47,0,0,1-1-2.64l0-.16a2.09,2.09,0,0,1,0-.36,3.07,3.07,0,0,1,0-.53c0-.15,0-.32,0-.49a8.43,8.43,0,0,1,15.38-4.78Z"/><polygon class="cls-15" points="1024.03 248.28 910.64 248.28 925.82 248.28 925.82 290.81 1008.85 290.81 1008.85 248.28 1024.03 248.28"/><polygon class="cls-15" points="1024.03 290.81 910.64 290.81 925.82 333.33 925.82 394.31 1008.85 394.31 1008.85 333.33 1024.03 290.81"/><line class="cls-15" x1="925.82" y1="333.33" x2="1008.85" y2="333.33"/><path class="cls-16" d="M1348.47,379.5l-70.86,175.08c-33.5,4.59-80,2.86-121-1.45-3.43-.36-6.83-.74-10.17-1.14q-6.92-.81-13.51-1.72c-3.56-.48-7-1-10.4-1.5-8.76-1.33-16.86-2.75-24.06-4.21-4.82-1-9.23-2-13.15-2.94-3.14-.79-6-1.58-8.45-2.36a88,88,0,0,0-45.57-2.37c-23.72,5-44,18.39-64,27.76-10.19,4.75-23.65,6.37-38.53,5.87L899.37,394.31H1030.1l32.59,27.57h160.52l42.38-42.38Z"/><path class="cls-7" d="M1025.47,442H957.35a5.14,5.14,0,0,0-5.21,5.2V551.6a5.14,5.14,0,0,0,5.21,5.2,5.24,5.24,0,0,0,5.2-5.2V502h45.36a5.12,5.12,0,1,0,0-10.24H962.55V452.26h62.92a5.12,5.12,0,1,0,0-10.24Z"/><path class="cls-7" d="M1068.07,469a43.89,43.89,0,0,0-36.76,67.89,88.18,88.18,0,0,1,11.75-1.69,33.49,33.49,0,1,1,42.27,6.42c3.92,1,8.33,2,13.15,2.94A43.9,43.9,0,0,0,1068.07,469Z"/><path class="cls-7" d="M1127.74,442a5.13,5.13,0,0,0-5.2,5.2V548.77c3.37.51,6.84,1,10.4,1.5v-103A5.13,5.13,0,0,0,1127.74,442Z"/><path class="cls-7" d="M1151.64,469a5.21,5.21,0,0,0-5.21,5V551.6a2.55,2.55,0,0,0,0,.39c3.34.4,6.74.78,10.17,1.14a5.44,5.44,0,0,0,.22-1.53V474A5.11,5.11,0,0,0,1151.64,469Zm0-19.34a5.73,5.73,0,0,0-5.69,5.53,5.62,5.62,0,0,0,5.69,5.52,5.52,5.52,0,0,0,5.69-5.52A5.62,5.62,0,0,0,1151.64,449.66Z"/><path class="cls-7" d="M1211.79,469a43.9,43.9,0,1,0,43.9,43.9A43.92,43.92,0,0,0,1211.79,469Zm0,77.39a33.57,33.57,0,1,1,33.5-33.49A33.44,33.44,0,0,1,1211.79,546.39Z"/><path class="cls-17" d="M1277.61,554.58c-33.5,4.59-80,2.86-121-1.45-3.43-.36-6.83-.74-10.17-1.14q-6.92-.81-13.51-1.72c-3.56-.48-7-1-10.4-1.5-8.76-1.33-16.86-2.75-24.06-4.21-4.82-1-9.23-2-13.15-2.94-3.14-.79-6-1.58-8.45-2.36a88,88,0,0,0-45.57-2.37c-23.72,5-44,18.39-64,27.76-10.19,4.75-33.65,6.37-48.53,5.87"/></svg>