<svg xmlns="http://www.w3.org/2000/svg" viewBox="0 0 796.22 285.96"><defs><style>.cls-1{fill:#fff;}</style></defs><g id="Ebene_2" data-name="Ebene 2"><g id="Ebene_1-2" data-name="Ebene 1"><path class="cls-1" d="M711.17,286H365L332.46,90.67h31.73V0H523.41L487.78,35.63v82.6H630.52L672.9,75.85H796.22ZM374.34,275H703.76L779.9,86.85H677.46l-42.38,42.38H476.78V31.07L496.85,11H375.19v90.67H345.45Z"/><path class="cls-1" d="M474.57,148.49a5.2,5.2,0,0,1-5.2,5H406.45V193h45.36a5.12,5.12,0,1,1,0,10.24H406.45v49.59a5.24,5.24,0,0,1-5.21,5.2,5.13,5.13,0,0,1-5.2-5.2V148.49a5.14,5.14,0,0,1,5.2-5.2h68.13A5.24,5.24,0,0,1,474.57,148.49Z"/><path class="cls-1" d="M512,258.07a43.9,43.9,0,1,1,43.89-43.89A43.92,43.92,0,0,1,512,258.07Zm0-77.55a33.58,33.58,0,1,0,33.49,33.66A33.59,33.59,0,0,0,512,180.52Z"/><path class="cls-1" d="M576.84,148.49V252.87a5.21,5.21,0,0,1-10.41,0V148.49a5.21,5.21,0,0,1,10.41,0Z"/><path class="cls-1" d="M595.53,150.93a5.62,5.62,0,0,1,5.69,5.53,5.52,5.52,0,0,1-5.69,5.53,5.62,5.62,0,0,1-5.69-5.53A5.73,5.73,0,0,1,595.53,150.93Zm0,107.14a5.23,5.23,0,0,1-5.2-5.2V175.32a5.21,5.21,0,0,1,5.2-5,5.11,5.11,0,0,1,5.21,5v77.55A5.14,5.14,0,0,1,595.53,258.07Z"/><path class="cls-1" d="M655.69,258.07a43.9,43.9,0,1,1,43.9-43.89A43.92,43.92,0,0,1,655.69,258.07Zm0-77.55a33.58,33.58,0,1,0,33.49,33.66A33.58,33.58,0,0,0,655.69,180.52Z"/><path class="cls-1" d="M80,153.71a40,40,0,0,1-40,40H10.41v29.42a5.14,5.14,0,0,1-5.21,5.21A5.14,5.14,0,0,1,0,223.13V118.76a5.14,5.14,0,0,1,5.2-5.21H40A40,40,0,0,1,80,153.71Zm-10.24,0A30,30,0,0,0,40,123.8H10.41v59.66H40A30,30,0,0,0,69.75,153.71Z"/><path class="cls-1" d="M229.3,145.58a5.14,5.14,0,0,1-5.2,5.21c-14.3,0-25.2,11.7-25.2,27.15v45.19a5.12,5.12,0,1,1-10.24,0V145.58a5.12,5.12,0,0,1,10.24,0V151a34.66,34.66,0,0,1,25.2-10.41A5.1,5.1,0,0,1,229.3,145.58Z"/><path class="cls-1" d="M179.51,180.94h-6.94a43.85,43.85,0,0,0-18.84-32.63l3.47-6a3.5,3.5,0,0,0-6.07-3.5l-3.46,6a43.91,43.91,0,0,0-37.69,0l-3.46-6a3.5,3.5,0,0,0-6.07,3.5l3.47,6a43.89,43.89,0,0,0-18.84,32.64h-7a3.5,3.5,0,0,0,0,7h7a43.87,43.87,0,0,0,18.85,32.64l-3.48,6a3.5,3.5,0,0,0,1.29,4.78,3.45,3.45,0,0,0,1.74.47,3.51,3.51,0,0,0,3-1.75l3.46-6a43.91,43.91,0,0,0,37.69,0l3.46,6a3.51,3.51,0,0,0,3,1.75,3.45,3.45,0,0,0,1.74-.47,3.5,3.5,0,0,0,1.29-4.78l-3.48-6a43.87,43.87,0,0,0,18.85-32.64h6.94a3.5,3.5,0,0,0,0-7Zm-17.37,0H146a17.43,17.43,0,0,0-5.56-9.65l8.1-14A33.72,33.72,0,0,1,162.14,180.94Zm-43.76,3.42a10.49,10.49,0,1,1,10.49,10.49A10.5,10.5,0,0,1,118.38,184.36Zm10.44-33.57a33.06,33.06,0,0,1,13.69,2.94l-8.1,14.05a17.26,17.26,0,0,0-11.15,0l-8.13-14.08A33.13,33.13,0,0,1,128.82,150.79Zm-19.73,6.47,8.13,14.09a17.43,17.43,0,0,0-5.5,9.59H95.51A33.68,33.68,0,0,1,109.09,157.26ZM95.51,187.94h16.24a17.48,17.48,0,0,0,5.53,9.49l-8.15,14.12A33.45,33.45,0,0,1,95.51,187.94Zm33.31,30a33.44,33.44,0,0,1-13.62-2.88l8.14-14.11a17.32,17.32,0,0,0,11,0l8.12,14.08A33.45,33.45,0,0,1,128.82,217.93Zm19.69-6.38-8.11-14.07a17.48,17.48,0,0,0,5.59-9.54h16.14A33.38,33.38,0,0,1,148.51,211.55Z"/><line class="cls-1" x1="256.32" y1="160.42" x2="256.11" y2="160.27"/><line class="cls-1" x1="256.32" y1="154.21" x2="256.11" y2="154.06"/><line class="cls-1" x1="267.53" y1="162.06" x2="267.32" y2="161.91"/><line class="cls-1" x1="256.32" y1="147.99" x2="256.11" y2="147.84"/><line class="cls-1" x1="267.53" y1="155.84" x2="267.32" y2="155.69"/><line class="cls-1" x1="267.53" y1="149.63" x2="256.11" y2="141.63"/><line class="cls-1" x1="256.32" y1="135.57" x2="256.11" y2="135.42"/><line class="cls-1" x1="267.53" y1="143.42" x2="267.32" y2="143.27"/><path class="cls-1" d="M266.32,146.7l-9-6.3-.35-.25-.15-.09v3.66l.5.35,9,6.3.35.24.15.09v-3.65Z"/><path class="cls-1" d="M257,140.15l-.15-.09a1.28,1.28,0,0,0-.5-.16v3.47l.5.35.5.35V140.4Zm0,0-.15-.09a1.28,1.28,0,0,0-.5-.16v3.47l.5.35.5.35V140.4Zm0,0-.15-.09a1.28,1.28,0,0,0-.5-.16v3.47l.5.35.5.35V140.4Zm0,0-.15-.09a1.28,1.28,0,0,0-.5-.16v3.47l.5.35.5.35V140.4Zm0,0-.15-.09a1.28,1.28,0,0,0-.5-.16v3.47l.5.35.5.35V140.4Zm0,0-.15-.09a1.28,1.28,0,0,0-.5-.16v3.47l.5.35.5.35V140.4Zm9.85,6.9-.5-.35v3.67l.35.24.15.09a1.31,1.31,0,0,0,.5.15V147.4Zm-9.85-6.9-.15-.09a1.28,1.28,0,0,0-.5-.16v3.47l.5.35.5.35V140.4Zm0,0-.15-.09a1.28,1.28,0,0,0-.5-.16v3.47l.5.35.5.35V140.4Zm0,0-.15-.09a1.28,1.28,0,0,0-.5-.16v3.47l.5.35.5.35V140.4Zm0,0-.15-.09a1.28,1.28,0,0,0-.5-.16v3.47l.5.35.5.35V140.4Zm0,0-.15-.09a1.28,1.28,0,0,0-.5-.16v3.47l.5.35.5.35V140.4Z"/><path class="cls-1" d="M266.32,119v20.54l-8.71-6.1a.53.53,0,0,0-.14-.1l-.15-.1V118.77a4.49,4.49,0,0,1,1.48-3.33,4.38,4.38,0,0,1,3-1.17,3.62,3.62,0,0,1,.46,0A4.65,4.65,0,0,1,266.32,119Z"/><path class="cls-1" d="M299.5,206.75a21.09,21.09,0,1,1-42.18,0V163.17l8.77,6.15a1,1,0,0,0,.23.13v37a12.36,12.36,0,0,0,10.92,12.37,12,12,0,0,0,13-9.7,2.34,2.34,0,0,0-.49-2,2.41,2.41,0,0,0-1.87-.88h-8.17l13.78-12a1.4,1.4,0,0,1,1.09-.33,1.29,1.29,0,0,1,.94.54A21.06,21.06,0,0,1,299.5,206.75Z"/><path class="cls-1" d="M269.3,111.52l-.26,0h.25l.46,0Z"/><path class="cls-1" d="M253.77,112.16h0s0,0,0,.07,0,0,0-.08Zm.53,4.89-.09-.2.08.21.2.49,0,0h0A4,4,0,0,1,254.3,117.05Z"/><path class="cls-1" d="M289.86,99.29c0,4.39-3.55,8.09-7.14,9.79a26.45,26.45,0,0,1-9,2.15l-.46,0-2,.14-1.53.09-.45,0-.26,0h0c-4,.2-7.81.54-11.09,2.14a12.88,12.88,0,0,0-3.06,2.07,4.54,4.54,0,0,1-.12-.5,1.8,1.8,0,0,1-.06-.32v0s0-.05,0-.07a.13.13,0,0,0,0-.06.57.57,0,0,1,0-.13,3.11,3.11,0,0,1,0-.32c0-.18,0-.36,0-.55s0-.32,0-.48a1.94,1.94,0,0,1,0-.24.49.49,0,0,1,0-.12s0-.08,0-.12,0-.32.08-.48,0-.2.07-.3a14.61,14.61,0,0,1,1.81-1,28.44,28.44,0,0,1,10.46-2.34l2.5-.15,2.34-.13.81-.06a24.81,24.81,0,0,0,8.68-1.94c3.06-1.45,5.88-4.63,5.36-7.9-.33-2.15-2.17-4.28-4.8-5.55a25.77,25.77,0,0,0-8.6-2c-9.42-1-17.29-.63-24,1.11-8.31,2.14-15.08,6.48-19.08,12.22a25.54,25.54,0,0,0-3.49,20.87A32.71,32.71,0,0,0,239.7,143a69.91,69.91,0,0,0,14.74,8.43,2.6,2.6,0,0,0-.38.43,2.54,2.54,0,0,0-.42,1.8h0v0a2.34,2.34,0,0,0,0,.38,2.26,2.26,0,0,0,0,.26A71.07,71.07,0,0,1,238,145.46a35.71,35.71,0,0,1-14.08-19.6,28.53,28.53,0,0,1,3.93-23.34c4.41-6.32,11.79-11.09,20.79-13.42a60,60,0,0,1,15.06-1.75,97.28,97.28,0,0,1,10.06.56,28.61,28.61,0,0,1,9.59,2.31c3.54,1.73,5.95,4.64,6.45,7.78A8.19,8.19,0,0,1,289.86,99.29Z"/><path class="cls-1" d="M253.77,112.16h0s0,0,0,.07,0,0,0-.08Zm.44,4.69.08.21h0Zm-.44-4.69h0s0,0,0,.07,0,0,0-.08Zm.44,4.69.08.21h0Zm0,0,.08.21h0Zm-.44-4.69h0s0,0,0,.07,0,0,0-.08Zm.44,4.69.08.21h0Zm-.44-4.69h0s0,0,0,.07,0,0,0-.08Zm.44,4.69.08.21h0Zm-.44-4.69h0s0,0,0,.07,0,0,0-.08Zm0,0h0s0,0,0,.07,0,0,0-.08Zm.44,4.69.08.21h0Zm-.44-4.69h0s0,0,0,.07,0,0,0-.08Zm.44,4.69.08.21h0Zm0,0,.08.21h0Zm-.44-4.69h0s0,0,0,.07,0,0,0-.08Zm.44,4.69.08.21h0Zm-.44-4.69h0s0,0,0,.07,0,0,0-.08Zm0,0h0s0,0,0,.07,0,0,0-.08Zm.44,4.69.08.21h0Zm-.44-4.69h0s0,0,0,.07,0,0,0-.08Zm.44,4.69.08.21h0Zm0,0,.08.21h0Zm-.44-4.69h0s0,0,0,.07,0,0,0-.08Zm.44,4.69.08.21h0Zm-.44-4.69h0s0,0,0,.07,0,0,0-.08Zm0,0h0s0,0,0,.07,0,0,0-.08Zm.44,4.69.08.21h0Z"/><path class="cls-1" d="M254.3,117.05l-.09-.2.08.21.2.49,0,0h0A4,4,0,0,1,254.3,117.05Zm-.52-4.89h0c-.29.22-.57.44-.84.67q.4-.35.84-.66s0,0,0,.07S253.77,112.19,253.78,112.16Zm0,0h0c-.29.22-.57.44-.84.67q.4-.35.84-.66s0,0,0,.07S253.77,112.19,253.78,112.16Zm.52,4.89-.09-.2.08.21.2.49,0,0h0A4,4,0,0,1,254.3,117.05Zm0,0-.09-.2.08.21.2.49,0,0h0A4,4,0,0,1,254.3,117.05Zm-.52-4.89h0c-.29.22-.57.44-.84.67q.4-.35.84-.66s0,0,0,.07S253.77,112.19,253.78,112.16Zm0,0h0c-.29.22-.57.44-.84.67q.4-.35.84-.66s0,0,0,.07S253.77,112.19,253.78,112.16Zm.52,4.89-.09-.2.08.21.2.49,0,0h0A4,4,0,0,1,254.3,117.05Zm0,0-.09-.2.08.21.2.49,0,0h0A4,4,0,0,1,254.3,117.05Zm-.52-4.89h0c-.29.22-.57.44-.84.67q.4-.35.84-.66s0,0,0,.07S253.77,112.19,253.78,112.16Z"/><path class="cls-1" d="M268.76,144.28a1.5,1.5,0,0,1-1.44.6,1.25,1.25,0,0,1-.5-.14l-11.6-8.11c-5.25-3.22-7.78-7.43-7.53-12.51a14.71,14.71,0,0,1,2.33-7.2,12,12,0,0,0,1.56,3.48,11.29,11.29,0,0,0-.89,3.87c-.19,3.79,1.64,6.89,5.63,9.5l12.06,8.42A1.49,1.49,0,0,1,268.76,144.28Z"/><path class="cls-1" d="M256.32,155.27v0l-.05,0Z"/><path class="cls-1" d="M297.59,155.27a2.28,2.28,0,0,1,0,.26,1.59,1.59,0,0,1-1.59,1.24h-26.4c.06-.09.11-.18.16-.27a2.49,2.49,0,0,0-.31-2.73h26.66a1.51,1.51,0,0,1,1.15.53A1.48,1.48,0,0,1,297.59,155.27Z"/><path class="cls-1" d="M256.27,155.26l.05,0v0Z"/><path class="cls-1" d="M268.86,168a1.52,1.52,0,0,1-1.54.77,1.29,1.29,0,0,1-.5-.14l-.15-.09-11.33-7.94a1.58,1.58,0,0,1-.54-2,1.46,1.46,0,0,1,1-.73,1.32,1.32,0,0,1,.34,0,.75.75,0,0,1,.21,0,1.28,1.28,0,0,1,.5.16l.15.09L268.3,166A1.58,1.58,0,0,1,268.86,168Z"/><path class="cls-1" d="M256.27,155.26l.05,0v0Z"/><path class="cls-1" d="M269,161.75a1.47,1.47,0,0,1-1.43,1.05h-.2a1.41,1.41,0,0,1-.31-.08l-.19-.09c-.06,0-11.57-8.08-11.57-8.08a1.55,1.55,0,0,1-.38-.39,1.28,1.28,0,0,1-.2-.47h0a1.51,1.51,0,0,1,.17-1.15h0a.35.35,0,0,1,0-.08,1.47,1.47,0,0,1,1.21-.63l.23,0a1.89,1.89,0,0,1,.34.09l.16.07.15.08L268.3,160A1.59,1.59,0,0,1,269,161.75Z"/><path class="cls-1" d="M268.86,156a1.52,1.52,0,0,1-.92.73,1.44,1.44,0,0,1-.62,0,1.09,1.09,0,0,1-.25,0,1.36,1.36,0,0,1-.25-.11.6.6,0,0,1-.15-.09l-11.33-7.93a1.58,1.58,0,0,1-.54-2,1.51,1.51,0,0,1,1-.74,2,2,0,0,1,.34,0,.75.75,0,0,1,.21,0,1.28,1.28,0,0,1,.5.16l.15.09,11.33,7.94A1.58,1.58,0,0,1,268.86,156Z"/><path class="cls-1" d="M268.86,150.07a1.54,1.54,0,0,1-1.54.78,1.31,1.31,0,0,1-.5-.15l-.15-.09-11.33-7.93a1.59,1.59,0,0,1-.54-2,1.46,1.46,0,0,1,1-.73,1.32,1.32,0,0,1,.34,0,.75.75,0,0,1,.21,0,1.28,1.28,0,0,1,.5.16l11.48,8A1.58,1.58,0,0,1,268.86,150.07Z"/><path class="cls-1" d="M272.92,112.3c-1,.08-2,.14-3,.19a7.8,7.8,0,0,1,.1,1.28,8.16,8.16,0,0,1-2.7,6.07v3.68a11.25,11.25,0,0,0,5.7-9.75A10.37,10.37,0,0,0,272.92,112.3Zm-18.62,4.75-.09-.2.08.21.2.49,0,0h0A4,4,0,0,1,254.3,117.05Zm-.52-4.89h0c-.29.22-.57.44-.84.67q.4-.35.84-.66s0,0,0,.07S253.77,112.19,253.78,112.16Zm.52,4.89-.09-.2.08.21.2.49,0,0h0A4,4,0,0,1,254.3,117.05Zm-.52-4.89h0c-.29.22-.57.44-.84.67q.4-.35.84-.66s0,0,0,.07S253.77,112.19,253.78,112.16Zm.52,4.89-.09-.2.08.21.2.49,0,0h0A4,4,0,0,1,254.3,117.05Zm-.52-4.89h0c-.29.22-.57.44-.84.67q.4-.35.84-.66s0,0,0,.07S253.77,112.19,253.78,112.16Zm0,0h0c-.29.22-.57.44-.84.67q.4-.35.84-.66s0,0,0,.07S253.77,112.19,253.78,112.16Zm.52,4.89-.09-.2.08.21.2.49,0,0h0A4,4,0,0,1,254.3,117.05Zm-.52-4.89h0c-.29.22-.57.44-.84.67q.4-.35.84-.66s0,0,0,.07S253.77,112.19,253.78,112.16Zm.52,4.89-.09-.2.08.21.2.49,0,0h0A4,4,0,0,1,254.3,117.05Z"/><path class="cls-1" d="M269.3,111.52l-.26,0h.25l.46,0Z"/><path class="cls-1" d="M271,107.42l-1.48.08-1.25.07-1.05.06A8.19,8.19,0,0,0,254,111.41a0,0,0,0,0,0,0s0,.11-.05.17,0,.2-.07.3a2,2,0,0,0-.06.26h0c-.29.22-.57.44-.84.67q.4-.35.84-.66s0,0,0,.07a.13.13,0,0,0,0,.06s0,0,0,.06-.05.29-.07.43,0,0,0,.08l0,.35c0,.18,0,.37,0,.55a6.85,6.85,0,0,0,0,.79v0c0,.24.06.47.1.7a1.6,1.6,0,0,0,.05.21s0,0,0,.06a4.39,4.39,0,0,0,.13.52l0,.09.12.38.12.31.08.21.2.49,0,0s0,0,0,0a8.16,8.16,0,0,0,1.78,2.3v3.69a11.32,11.32,0,0,1-3.6-3.22,2,2,0,0,1-.17-.23,2.13,2.13,0,0,1-.16-.25q-.16-.26-.3-.51a10.91,10.91,0,0,1-1.29-3.51,1.55,1.55,0,0,1,0-.21,3.7,3.7,0,0,1-.06-.48,4,4,0,0,1-.06-.7c0-.21,0-.43,0-.65A11.2,11.2,0,0,1,271,107.42Z"/><path class="cls-1" d="M583.05,129.23H533v-50h50Zm-39-11h28v-28H544Z"/><path class="cls-1" d="M622.38,129.23h-50v-50h50Zm-39-11h28v-28h-28Z"/><path class="cls-1" d="M601,90.19H551v-50h50Zm-39-11h28v-28H562Z"/><path class="cls-1" d="M451,87.9H401V37.85H451ZM412,76.9H440V48.85H412Z"/></g></g></svg>